<svg id="Layer_1" data-name="Layer 1" xmlns="http://www.w3.org/2000/svg" viewBox="0 0 654.67 337.41"><defs></defs><title>shalom</title><path class="cls-1" d="M710.15,612.91c0,45.64.79,90.9-1.18,136.54-0.39,10.62,16.53,1.57,19.67-3.15,5.51-7.87,3.54-19.67,3.54-32.66l-0.79-59.42V597.45c-4.1-8.52-24.38-10.85-34.53-11.52,12,2,13.28,9.87,13.28,27" transform="translate(-472.66 -417)"></path><path class="cls-2" d="M702.67,536H681.82c-9.84,0-11-3.15-10.23-9.05,1.57-10.23-8.26-9.84-11.41-.79-4.33,11.41-6.3,15.35-7.08,30.69-0.79,20.46,7.08,28.73,23.22,28.73h13.38a43.28,43.28,0,0,1,7.18.56c10.15,0.67,30.43,3,34.53,11.52V566.31c0-29.91-28.72-30.3-28.72-30.3" transform="translate(-472.66 -417)"></path><path class="cls-1" d="M799.05,694.71c-11.81,12.2-13,30.3-10.23,42.5,1.57,5.9,5.9,19.28,22,16.92,8.26-1.18,19.28-11,13.38-24.79-5.51-13-8.26-18.49-.39-29.51,4.72-6.69,41.71-33.05,48.79-39,15-12.59,20.85-27.54,22-37.78,0.77-6.14,1.81-12.92,2.72-19.9C887.95,586.4,850,583,850,583s0,0.12,0,.17c20.06,1.22,20.29,15.87,20.29,33.21,0,33.84-52.73,58.63-71.22,78.3" transform="translate(-472.66 -417)"></path><path class="cls-3" d="M858.08,533.78H782.92c-13.77,0-18.1-7.48-18.1-18.5,0-21.25,17.31-54.7,18.1-64.53,1.18-15.74-7.08-20.86-14.56-22-11.41-2-19.28,5.11-20.07-5.12-0.39-2-2-9.84-7.48-5.11-3.54,3.15-7.87,17.71-8.26,23.21-0.39,12.2,3.54,22.43,16.13,22.82,1.57,0,10.23-1.57,8.26,9.84-0.39,9.84-14.17,48.79-12.59,76.34,1.57,29.51,11.41,32.27,27.15,32.27h75.94c1,0,1.65.18,2.53,0.23,0-.05,0-0.17,0-0.17s38,3.38,47.41,20.17c4.22-32.41,5.36-69.42-39.32-69.42" transform="translate(-472.66 -417)"></path><path class="cls-2" d="M768.36,428.71c-11.41-2-19.28,5.12-20.07-5.11-0.39-2-2-9.84-7.48-5.11-3.54,3.15-7.87,17.7-8.26,23.22-0.39,12.2,3.54,22.43,16.13,22.82a13.8,13.8,0,0,1,4.53.34c6-.56,13.67-1,16.32-0.1A17.2,17.2,0,0,1,777,469.5c3.09-8.25,5.64-15.12,5.93-18.75,1.18-15.74-7.08-20.85-14.56-22" transform="translate(-472.66 -417)"></path><path class="cls-2" d="M1007.48,530.43c1.57-9.84-7.08-8.66-9.84-4.33s-8.26,11-9.84,29.91c-0.79,10.23-.79,32.27,19.28,33.45,1.6,0,2.68.52,3.1,1.54,1.65-.36,3.79-0.79,6.7-1.31,10.6-1.9,17.6.48,21.08,2.9a15.55,15.55,0,0,1,4.92,2c2,1.18,1.18,3.54,3.94-3.15,6.29-14.16,14.56-46.82-15.35-50.76L1013,538.3c-4.33-.39-5.9-4.72-5.51-7.87" transform="translate(-472.66 -417)"></path><path class="cls-1" d="M935.48,590.72c-5.51,11-12.2,25.58-12.2,42.5,0,15.35,18.1,121.19,18.1,121.19h87c17.71,0,22-10.62,26-19.28l37.78-83.81c9.53-21,22.31-35.16,30-57-3.93-1.92-10.33-3.37-19.21-1.78-2.46.44-4.3,0.8-5.84,1.13a8.28,8.28,0,0,1,3.29,6.87c0,7.08-13,11.8-17.71,22.43,0,0-23.61,44.86-38.56,69.25-5.12,8.26-14.56,13.77-24,13.77-10.23.39-39.35,0-39.35,0s39.74-103.49,47.22-110.57a10.53,10.53,0,0,1,10-2.77c-3.48-2.42-10.49-4.81-21.08-2.9-2.91.52-5,1-6.7,1.31,0.41,1,.22,2.43-0.74,4.36-3.93,9-41.32,100.34-46.43,112.14-11.41-23.22-20.07-54.69-19.67-79.48a75.11,75.11,0,0,1,5.9-29.91c2.61-6.33,7.36-10.82,14.87-9-4-1.5-9.67-2.44-17.33-1.07-7.95,1.43-10.54,2.2-11.38,2.57l0.07,0" transform="translate(-472.66 -417)"></path><path class="cls-3" d="M1105.07,541.06l-13.38-2.36c-4.72-.79-9.05-1.58-7.87-9.05,0.79-5.51-5.12-9.45-9.44-4.33-2.75,3.15-11.41,19.68-11.41,34.23,0,22.43,5.9,31.09,22,31.09,6.09,0,9.78,1.23,12.05,3,1.54-.32,3.38-0.69,5.84-1.13,8.87-1.59,15.28-.15,19.21,1.78a107.69,107.69,0,0,0,4.61-17c1.57-8.66,2-31.87-21.64-36.2" transform="translate(-472.66 -417)"></path><path class="cls-2" d="M974,587.1c2-8.66,4.33-18.49,4.72-25.18,0.79-12.2-9.84-22.43-18.89-22.43H939.41c-4.72,0-7.48-3.15-6.69-7.87,1.57-11.41-8.26-9.45-10.62-5.12-3.15,5.51-7.87,23.21-7.87,29.91,0,37.1,18.59,35.44,21.18,34.26,0.84-.37,3.43-1.14,11.38-2.57,7.66-1.37,13.33-.43,17.33,1.07,0.43,0.1.82,0.15,1.27,0.3,6.3,2.36,6.69,6.69,8.66-2.36" transform="translate(-472.66 -417)"></path><path class="cls-1" d="M603,535.75H502.29c-11.19,0-11.59-4.4-12-11.19-0.4-5.2-7.2-8-10.79-1.2-4,7.2-6.79,17.19-6.79,29.18-0.4,14,2,27.18,9.59,30.78,3.72,2,5.6,2.43,8.59,2.48l2.38,0c1.38,0,3-.07,5-0.07l-0.05,0,35.25-.2c1.18-.09,2.3-0.24,3.57-0.24h42c0.34,0,.62.06,1,0.07,29.07,0.07,52.62,2.16,55.34,15.73-0.45-15.17-.94-30.82-1.13-33.39-0.8-22-6.4-32-31.18-32" transform="translate(-472.66 -417)"></path><path class="cls-3" d="M636.71,679.15c-6.09,9.65-16.37,19.56-30.41,23.43-3.37,1.45-8,2.26-14.47,2.26H522.67c-19.59,0-23.18-3.6-23.18-26V623.69s0.48-35.7,34-38.14l-35.25.2c-2.52,2.08-21.94,14.88-22.34,48.73l-1.2,70v33.18c0,16,10.79,16.79,13.19,16.79H618.61c6.4,0,17.19,0,18-18,0.39-8.05.3-33.49,0.11-57.27" transform="translate(-472.66 -417)"></path><path class="cls-2" d="M636.71,679.15c-0.2-24.61-.51-47.46-0.51-47.46s-0.41-15-.86-30.57c-2.73-13.57-26.27-15.66-55.34-15.73,23.69,0.35,35,13.09,35,39.11v54.36c0,11.09.38,19.81-8.71,23.72,14-3.87,24.32-13.78,30.41-23.43" transform="translate(-472.66 -417)"></path></svg>